#!OML:ASF I:\Actors\actors\Patient Classification 2\Patient 1\Session 1\actor1.ASF
:FULLY-SPECIFIED
:DEGREES
251
root -0.493334 18.6348 5.90666 -1.90162 9.94122 -1.48613
lowerback 4.07943 4.89669 7.19669
upperback -3.27269 7.12388 2.04577
thorax -5.09575 3.30268 -2.42625
lowerneck -9.29355 -5.56409 0.259204
upperneck 9.45637 -6.538 -9.02762
head 4.032 -3.73059 -3.20124
rclavicle 1.71949e-013 7.07673e-014
rhumerus 25.1424 9.44201 -49.2748
rradius 140.576
rwrist -12.1809
rhand -18.2963 -14.4574
rfingers 7.12502
rthumb 7.98441 -44.2866
lclavicle 1.71949e-013 7.07673e-014
lhumerus -48.7226 -6.8473 94.1475
lradius 53.6487
lwrist -2.06724
lhand -9.64302 -26.4525
lfingers 7.12502
lthumb 16.3274 2.88013
rfemur 0 0 0
rtibia 0
rfoot 0 0
rtoes 0
lfemur -4.93416 -6.26874 -13.1574
ltibia 24.2788
lfoot -19.3681 3.16897
ltoes -56.7815
252
root -0.499881 18.6335 5.90756 -1.98604 10.1161 -1.50176
lowerback 3.76585 4.84181 6.8322
upperback -2.93939 6.98751 2.28818
thorax -4.64812 3.27729 -1.92439
lowerneck -9.5815 -5.26868 0.148001
upperneck 9.49651 -6.08481 -9.27175
head 4.11177 -3.53121 -3.24616
rclavicle -7.5737e-014 -2.54444e-014
rhumerus 25.886 9.70447 -49.0006
rradius 140.344
rwrist -12.1881
rhand -18.2864 -14.2334
rfingers 7.12502
rthumb 7.99393 -44.0622
lclavicle -7.5737e-014 -2.54444e-014
lhumerus -48.3511 -6.12766 94.1907
lradius 53.6644
lwrist -2.10165
lhand -9.4774 -25.961
lfingers 7.12502
lthumb 16.4868 3.35853
rfemur 0 0 0
rtibia 0
rfoot 0 0
rtoes 0
lfemur -4.91342 -6.40108 -13.1339
ltibia 24.3321
lfoot -19.3534 3.08425
ltoes -56.7006
253
root -0.504528 18.6328 5.90837 -2.02228 10.2794 -1.50413
lowerback 4.08021 4.90955 7.00655
upperback -3.10954 7.12183 2.12154
thorax -4.95481 3.31904 -2.23712
lowerneck -9.52026 -5.16727 -0.0396263
upperneck 9.9177 -5.90871 -9.1162
head 4.25016 -3.45106 -3.16875
rclavicle 1.20265e-014 3.33958e-014
rhumerus 25.4713 9.92376 -49.0788
rradius 140.237
rwrist -12.0779
rhand -18.4314 -13.8946
rfingers 7.12502
rthumb 7.85394 -43.7287
lclavicle 1.20265e-014 3.33958e-014
lhumerus -48.7514 -6.29291 94.1412
lradius 53.9108
lwrist -1.9343
lhand -9.25858 -24.8449
lfingers 7.12502
lthumb 16.6975 4.45697
rfemur 0 0 0
rtibia 0
rfoot 0 0
rtoes 0
lfemur -4.93285 -6.5343 -13.1302
ltibia 24.3793
lfoot -19.3683 3.05058
ltoes -56.7139
254
root -0.507366 18.632 5.9079 -2.04009 10.467 -1.52172
lowerback 4.17106 4.91704 7.00061
upperback -3.13676 7.14203 2.11698
thorax -5.03372 3.32545 -2.2505
lowerneck -9.50318 -5.04041 -0.154195
upperneck 10.1691 -5.69367 -9.19026
head 4.3366 -3.35939 -3.16772
rclavicle -3.47873e-015 -1.03368e-014
rhumerus 25.402 10.1251 -48.9896
rradius 140.19
rwrist -12.0763
rhand -18.406 -14.0913
rfingers 7.12502
rthumb 7.8785 -43.9245
lclavicle -3.47873e-015 -1.03368e-014
lhumerus -48.9404 -6.22528 94.1612
lradius 54.0269
lwrist -1.88728
lhand -9.26959 -24.1439
lfingers 7.12502
lthumb 16.6869 5.15888
rfemur 0 0 0
rtibia 0
rfoot 0 0
rtoes 0
lfemur -4.98514 -6.61389 -13.1081
ltibia 24.4225
lfoot -19.3385 3.00001
ltoes -56.789
255
root -0.511137 18.631 5.90685 -2.08082 10.661 -1.5671
lowerback 4.19113 4.89882 6.90049
upperback -3.08769 7.11505 2.21121
thorax -5.01903 3.31917 -2.09774
lowerneck -9.45678 -4.93021 -0.286482
upperneck 10.252 -5.50635 -9.30392
head 4.36474 -3.27969 -3.17181
rclavicle 6.56983e-014 2.70347e-014
rhumerus 25.4595 10.2366 -48.8376
rradius 140.181
rwrist -12.3427
rhand -17.939 -14.084
rfingers 7.12502
rthumb 8.3292 -43.8997
lclavicle 6.56983e-014 2.70347e-014
lhumerus -49.0093 -6.02446 94.2061
lradius 53.9981
lwrist -1.91603
lhand -9.43771 -24.0009
lfingers 7.12502
lthumb 16.5251 5.31545
rfemur 0 0 0
rtibia 0
rfoot 0 0
rtoes 0
lfemur -5.02177 -6.7685 -13.0595
ltibia 24.4637
lfoot -19.3385 3.01749
ltoes -56.8021
256
root -0.516697 18.6308 5.90664 -2.11026 10.8285 -1.59712
lowerback 4.19466 4.87494 6.74602
upperback -3.03549 7.07463 2.29264
thorax -4.99695 3.30833 -1.92626
lowerneck -9.49338 -4.84565 -0.458688
upperneck 10.3859 -5.35528 -9.29815
head 4.42516 -3.21563 -3.13886
rclavicle 1.799e-014 2.3059e-014
rhumerus 25.4603 10.3369 -48.6701
rradius 140.199
rwrist -12.546
rhand -17.5854 -13.9218
rfingers 7.12502
rthumb 8.6705 -43.7237
lclavicle 1.799e-014 2.3059e-014
lhumerus -49.0795 -5.75791 94.1618
lradius 53.965
lwrist -2.00485
lhand -9.57314 -23.8729
lfingers 7.12502
lthumb 16.3947 5.45423
rfemur 0 0 0
rtibia 0
rfoot 0 0
rtoes 0
lfemur -5.05992 -6.97699 -13.0282
ltibia 24.5023
lfoot -19.3587 3.10456
ltoes -56.8486
257
root -0.521697 18.6309 5.9061 -2.11235 11.0215 -1.57999
lowerback 4.19912 4.82744 6.57842
upperback -3.0087 7.0006 2.31355
thorax -4.99804 3.27875 -1.80912
lowerneck -9.57195 -4.76754 -0.597854
upperneck 10.5666 -5.2209 -9.22459
head 4.50668 -3.15689 -3.09362
rclavicle -3.21037e-014 1.11319e-014
rhumerus 25.4233 10.5758 -48.5192
rradius 140.164
rwrist -12.1703
rhand -17.9086 -14.0394
rfingers 7.12502
rthumb 8.35854 -43.854
lclavicle -3.21037e-014 1.11319e-014
lhumerus -49.194 -5.45202 93.9875
lradius 53.9202
lwrist -2.14917
lhand -9.63122 -23.7672
lfingers 7.12502
lthumb 16.3387 5.56452
rfemur 0 0 0
rtibia 0
rfoot 0 0
rtoes 0
lfemur -5.12758 -7.13936 -13.0414
ltibia 24.5379
lfoot -19.3386 3.11573
ltoes -56.9205
258
root -0.525719 18.631 5.90465 -2.1057 11.24 -1.57861
lowerback 4.22094 4.77796 6.46619
upperback -2.99941 6.9294 2.31924
thorax -5.01887 3.2472 -1.74005
lowerneck -9.62798 -4.73307 -0.663653
upperneck 10.7192 -5.15314 -9.2048
head 4.56877 -3.13018 -3.07889
rclavicle 2.54444e-014 2.62396e-014
rhumerus 25.4244 10.5964 -48.4954
rradius 140.213
rwrist -12.4917
rhand -17.5551 -14.1688
rfingers 7.12502
rthumb 8.69969 -43.9696
lclavicle 2.54444e-014 2.62396e-014
lhumerus -49.2826 -5.16928 93.7837
lradius 53.8275
lwrist -2.31224
lhand -9.5871 -23.8141
lfingers 7.12502
lthumb 16.3812 5.51414
rfemur 0 0 0
rtibia 0
rfoot 0 0
rtoes 0
lfemur -5.21584 -7.27578 -13.0303
ltibia 24.5688
lfoot -19.2909 3.0398
ltoes -56.905
